<?xml version="1.0" encoding="utf-8" standalone="no"?>
<!DOCTYPE svg PUBLIC "-//W3C//DTD SVG 1.1//EN"
  "http://www.w3.org/Graphics/SVG/1.1/DTD/svg11.dtd">
<svg xmlns:xlink="http://www.w3.org/1999/xlink" width="360pt" height="288pt" viewBox="0 0 360 288" xmlns="http://www.w3.org/2000/svg" version="1.1">
 <metadata>
  <rdf:RDF xmlns:dc="http://purl.org/dc/elements/1.1/" xmlns:cc="http://creativecommons.org/ns#" xmlns:rdf="http://www.w3.org/1999/02/22-rdf-syntax-ns#">
   <cc:Work>
    <dc:type rdf:resource="http://purl.org/dc/dcmitype/StillImage"/>
    <dc:date>2024-01-31T16:52:33.175059</dc:date>
    <dc:format>image/svg+xml</dc:format>
    <dc:creator>
     <cc:Agent>
      <dc:title>Matplotlib v3.8.2, https://matplotlib.org/</dc:title>
     </cc:Agent>
    </dc:creator>
   </cc:Work>
  </rdf:RDF>
 </metadata>
 <defs>
  <style type="text/css">*{stroke-linejoin: round; stroke-linecap: butt}</style>
 </defs>
 <g id="figure_1">
  <g id="patch_1">
   <path d="M 0 288 
L 360 288 
L 360 0 
L 0 0 
L 0 288 
z
" style="fill: none"/>
  </g>
  <g id="axes_1">
   <g id="patch_2">
    <path d="M 71.721356 227.94 
L 332.962928 227.94 
L 332.962928 19.44 
L 71.721356 19.44 
L 71.721356 227.94 
z
" style="fill: none"/>
   </g>
   <g id="matplotlib.axis_1">
    <g id="xtick_1">
     <g id="line2d_1">
      <defs>
       <path id="med8708c7a5" d="M 0 0 
L 0 -3.5 
" style="stroke: #000000; stroke-width: 0.8"/>
      </defs>
      <g>
       <use xlink:href="#med8708c7a5" x="83.595973" y="227.94" style="stroke: #000000; stroke-width: 0.8"/>
      </g>
     </g>
     <g id="text_1">
      <!-- 0 -->
      <g transform="translate(78.591129 244.324062) scale(0.18 -0.18)">
       <defs>
        <path id="ArialMT-30" d="M 266 2259 
Q 266 3072 433 3567 
Q 600 4063 929 4331 
Q 1259 4600 1759 4600 
Q 2128 4600 2406 4451 
Q 2684 4303 2865 4023 
Q 3047 3744 3150 3342 
Q 3253 2941 3253 2259 
Q 3253 1453 3087 958 
Q 2922 463 2592 192 
Q 2263 -78 1759 -78 
Q 1097 -78 719 397 
Q 266 969 266 2259 
z
M 844 2259 
Q 844 1131 1108 757 
Q 1372 384 1759 384 
Q 2147 384 2411 759 
Q 2675 1134 2675 2259 
Q 2675 3391 2411 3762 
Q 2147 4134 1753 4134 
Q 1366 4134 1134 3806 
Q 844 3388 844 2259 
z
" transform="scale(0.015625)"/>
       </defs>
       <use xlink:href="#ArialMT-30"/>
      </g>
     </g>
    </g>
    <g id="xtick_2">
     <g id="line2d_2">
      <g>
       <use xlink:href="#med8708c7a5" x="202.461007" y="227.94" style="stroke: #000000; stroke-width: 0.8"/>
      </g>
     </g>
     <g id="text_2">
      <!-- 500 -->
      <g transform="translate(187.446476 244.324062) scale(0.18 -0.18)">
       <defs>
        <path id="ArialMT-35" d="M 266 1200 
L 856 1250 
Q 922 819 1161 601 
Q 1400 384 1738 384 
Q 2144 384 2425 690 
Q 2706 997 2706 1503 
Q 2706 1984 2436 2262 
Q 2166 2541 1728 2541 
Q 1456 2541 1237 2417 
Q 1019 2294 894 2097 
L 366 2166 
L 809 4519 
L 3088 4519 
L 3088 3981 
L 1259 3981 
L 1013 2750 
Q 1425 3038 1878 3038 
Q 2478 3038 2890 2622 
Q 3303 2206 3303 1553 
Q 3303 931 2941 478 
Q 2500 -78 1738 -78 
Q 1113 -78 717 272 
Q 322 622 266 1200 
z
" transform="scale(0.015625)"/>
       </defs>
       <use xlink:href="#ArialMT-35"/>
       <use xlink:href="#ArialMT-30" x="55.615234"/>
       <use xlink:href="#ArialMT-30" x="111.230469"/>
      </g>
     </g>
    </g>
    <g id="xtick_3">
     <g id="line2d_3">
      <g>
       <use xlink:href="#med8708c7a5" x="321.326041" y="227.94" style="stroke: #000000; stroke-width: 0.8"/>
      </g>
     </g>
     <g id="text_3">
      <!-- 1000 -->
      <g transform="translate(301.306666 244.324062) scale(0.18 -0.18)">
       <defs>
        <path id="ArialMT-31" d="M 2384 0 
L 1822 0 
L 1822 3584 
Q 1619 3391 1289 3197 
Q 959 3003 697 2906 
L 697 3450 
Q 1169 3672 1522 3987 
Q 1875 4303 2022 4600 
L 2384 4600 
L 2384 0 
z
" transform="scale(0.015625)"/>
       </defs>
       <use xlink:href="#ArialMT-31"/>
       <use xlink:href="#ArialMT-30" x="55.615234"/>
       <use xlink:href="#ArialMT-30" x="111.230469"/>
       <use xlink:href="#ArialMT-30" x="166.845703"/>
      </g>
     </g>
    </g>
    <g id="text_4">
     <!-- iteration -->
     <g transform="translate(170.326048 264.785625) scale(0.18 -0.18)">
      <defs>
       <path id="ArialMT-69" d="M 425 3934 
L 425 4581 
L 988 4581 
L 988 3934 
L 425 3934 
z
M 425 0 
L 425 3319 
L 988 3319 
L 988 0 
L 425 0 
z
" transform="scale(0.015625)"/>
       <path id="ArialMT-74" d="M 1650 503 
L 1731 6 
Q 1494 -44 1306 -44 
Q 1000 -44 831 53 
Q 663 150 594 308 
Q 525 466 525 972 
L 525 2881 
L 113 2881 
L 113 3319 
L 525 3319 
L 525 4141 
L 1084 4478 
L 1084 3319 
L 1650 3319 
L 1650 2881 
L 1084 2881 
L 1084 941 
Q 1084 700 1114 631 
Q 1144 563 1211 522 
Q 1278 481 1403 481 
Q 1497 481 1650 503 
z
" transform="scale(0.015625)"/>
       <path id="ArialMT-65" d="M 2694 1069 
L 3275 997 
Q 3138 488 2766 206 
Q 2394 -75 1816 -75 
Q 1088 -75 661 373 
Q 234 822 234 1631 
Q 234 2469 665 2931 
Q 1097 3394 1784 3394 
Q 2450 3394 2872 2941 
Q 3294 2488 3294 1666 
Q 3294 1616 3291 1516 
L 816 1516 
Q 847 969 1125 678 
Q 1403 388 1819 388 
Q 2128 388 2347 550 
Q 2566 713 2694 1069 
z
M 847 1978 
L 2700 1978 
Q 2663 2397 2488 2606 
Q 2219 2931 1791 2931 
Q 1403 2931 1139 2672 
Q 875 2413 847 1978 
z
" transform="scale(0.015625)"/>
       <path id="ArialMT-72" d="M 416 0 
L 416 3319 
L 922 3319 
L 922 2816 
Q 1116 3169 1280 3281 
Q 1444 3394 1641 3394 
Q 1925 3394 2219 3213 
L 2025 2691 
Q 1819 2813 1613 2813 
Q 1428 2813 1281 2702 
Q 1134 2591 1072 2394 
Q 978 2094 978 1738 
L 978 0 
L 416 0 
z
" transform="scale(0.015625)"/>
       <path id="ArialMT-61" d="M 2588 409 
Q 2275 144 1986 34 
Q 1697 -75 1366 -75 
Q 819 -75 525 192 
Q 231 459 231 875 
Q 231 1119 342 1320 
Q 453 1522 633 1644 
Q 813 1766 1038 1828 
Q 1203 1872 1538 1913 
Q 2219 1994 2541 2106 
Q 2544 2222 2544 2253 
Q 2544 2597 2384 2738 
Q 2169 2928 1744 2928 
Q 1347 2928 1158 2789 
Q 969 2650 878 2297 
L 328 2372 
Q 403 2725 575 2942 
Q 747 3159 1072 3276 
Q 1397 3394 1825 3394 
Q 2250 3394 2515 3294 
Q 2781 3194 2906 3042 
Q 3031 2891 3081 2659 
Q 3109 2516 3109 2141 
L 3109 1391 
Q 3109 606 3145 398 
Q 3181 191 3288 0 
L 2700 0 
Q 2613 175 2588 409 
z
M 2541 1666 
Q 2234 1541 1622 1453 
Q 1275 1403 1131 1340 
Q 988 1278 909 1158 
Q 831 1038 831 891 
Q 831 666 1001 516 
Q 1172 366 1500 366 
Q 1825 366 2078 508 
Q 2331 650 2450 897 
Q 2541 1088 2541 1459 
L 2541 1666 
z
" transform="scale(0.015625)"/>
       <path id="ArialMT-6f" d="M 213 1659 
Q 213 2581 725 3025 
Q 1153 3394 1769 3394 
Q 2453 3394 2887 2945 
Q 3322 2497 3322 1706 
Q 3322 1066 3130 698 
Q 2938 331 2570 128 
Q 2203 -75 1769 -75 
Q 1072 -75 642 372 
Q 213 819 213 1659 
z
M 791 1659 
Q 791 1022 1069 705 
Q 1347 388 1769 388 
Q 2188 388 2466 706 
Q 2744 1025 2744 1678 
Q 2744 2294 2464 2611 
Q 2184 2928 1769 2928 
Q 1347 2928 1069 2612 
Q 791 2297 791 1659 
z
" transform="scale(0.015625)"/>
       <path id="ArialMT-6e" d="M 422 0 
L 422 3319 
L 928 3319 
L 928 2847 
Q 1294 3394 1984 3394 
Q 2284 3394 2536 3286 
Q 2788 3178 2913 3003 
Q 3038 2828 3088 2588 
Q 3119 2431 3119 2041 
L 3119 0 
L 2556 0 
L 2556 2019 
Q 2556 2363 2490 2533 
Q 2425 2703 2258 2804 
Q 2091 2906 1866 2906 
Q 1506 2906 1245 2678 
Q 984 2450 984 1813 
L 984 0 
L 422 0 
z
" transform="scale(0.015625)"/>
      </defs>
      <use xlink:href="#ArialMT-69"/>
      <use xlink:href="#ArialMT-74" x="22.216797"/>
      <use xlink:href="#ArialMT-65" x="50"/>
      <use xlink:href="#ArialMT-72" x="105.615234"/>
      <use xlink:href="#ArialMT-61" x="138.916016"/>
      <use xlink:href="#ArialMT-74" x="194.53125"/>
      <use xlink:href="#ArialMT-69" x="222.314453"/>
      <use xlink:href="#ArialMT-6f" x="244.53125"/>
      <use xlink:href="#ArialMT-6e" x="300.146484"/>
     </g>
    </g>
   </g>
   <g id="matplotlib.axis_2">
    <g id="ytick_1">
     <g id="line2d_4">
      <defs>
       <path id="m07eb249d31" d="M 0 0 
L 3.5 0 
" style="stroke: #000000; stroke-width: 0.8"/>
      </defs>
      <g>
       <use xlink:href="#m07eb249d31" x="71.721356" y="56.285258" style="stroke: #000000; stroke-width: 0.8"/>
      </g>
     </g>
     <g id="text_5">
      <!-- $\mathdefault{10^{0}}$ -->
      <g transform="translate(39.961356 65.566508) scale(0.18 -0.18)">
       <use xlink:href="#ArialMT-31" transform="translate(0 0.99375)"/>
       <use xlink:href="#ArialMT-30" transform="translate(55.615234 0.99375)"/>
       <use xlink:href="#ArialMT-30" transform="translate(112.972813 70.6875) scale(0.7)"/>
      </g>
     </g>
    </g>
    <g id="ytick_2">
     <g id="line2d_5">
      <defs>
       <path id="mde3c5cc310" d="M 0 0 
L 2 0 
" style="stroke: #000000; stroke-width: 0.6"/>
      </defs>
      <g>
       <use xlink:href="#mde3c5cc310" x="71.721356" y="179.20406" style="stroke: #000000; stroke-width: 0.6"/>
      </g>
     </g>
    </g>
    <g id="ytick_3">
     <g id="line2d_6">
      <g>
       <use xlink:href="#mde3c5cc310" x="71.721356" y="148.237171" style="stroke: #000000; stroke-width: 0.6"/>
      </g>
     </g>
    </g>
    <g id="ytick_4">
     <g id="line2d_7">
      <g>
       <use xlink:href="#mde3c5cc310" x="71.721356" y="126.265813" style="stroke: #000000; stroke-width: 0.6"/>
      </g>
     </g>
    </g>
    <g id="ytick_5">
     <g id="line2d_8">
      <g>
       <use xlink:href="#mde3c5cc310" x="71.721356" y="109.223504" style="stroke: #000000; stroke-width: 0.6"/>
      </g>
     </g>
    </g>
    <g id="ytick_6">
     <g id="line2d_9">
      <g>
       <use xlink:href="#mde3c5cc310" x="71.721356" y="95.298924" style="stroke: #000000; stroke-width: 0.6"/>
      </g>
     </g>
    </g>
    <g id="ytick_7">
     <g id="line2d_10">
      <g>
       <use xlink:href="#mde3c5cc310" x="71.721356" y="83.525859" style="stroke: #000000; stroke-width: 0.6"/>
      </g>
     </g>
    </g>
    <g id="ytick_8">
     <g id="line2d_11">
      <g>
       <use xlink:href="#mde3c5cc310" x="71.721356" y="73.327567" style="stroke: #000000; stroke-width: 0.6"/>
      </g>
     </g>
    </g>
    <g id="ytick_9">
     <g id="line2d_12">
      <g>
       <use xlink:href="#mde3c5cc310" x="71.721356" y="64.332035" style="stroke: #000000; stroke-width: 0.6"/>
      </g>
     </g>
    </g>
    <g id="text_6">
     <!-- loss -->
     <g transform="translate(32.383856 139.694531) rotate(-90) scale(0.18 -0.18)">
      <defs>
       <path id="ArialMT-6c" d="M 409 0 
L 409 4581 
L 972 4581 
L 972 0 
L 409 0 
z
" transform="scale(0.015625)"/>
       <path id="ArialMT-73" d="M 197 991 
L 753 1078 
Q 800 744 1014 566 
Q 1228 388 1613 388 
Q 2000 388 2187 545 
Q 2375 703 2375 916 
Q 2375 1106 2209 1216 
Q 2094 1291 1634 1406 
Q 1016 1563 777 1677 
Q 538 1791 414 1992 
Q 291 2194 291 2438 
Q 291 2659 392 2848 
Q 494 3038 669 3163 
Q 800 3259 1026 3326 
Q 1253 3394 1513 3394 
Q 1903 3394 2198 3281 
Q 2494 3169 2634 2976 
Q 2775 2784 2828 2463 
L 2278 2388 
Q 2241 2644 2061 2787 
Q 1881 2931 1553 2931 
Q 1166 2931 1000 2803 
Q 834 2675 834 2503 
Q 834 2394 903 2306 
Q 972 2216 1119 2156 
Q 1203 2125 1616 2013 
Q 2213 1853 2448 1751 
Q 2684 1650 2818 1456 
Q 2953 1263 2953 975 
Q 2953 694 2789 445 
Q 2625 197 2315 61 
Q 2006 -75 1616 -75 
Q 969 -75 630 194 
Q 291 463 197 991 
z
" transform="scale(0.015625)"/>
      </defs>
      <use xlink:href="#ArialMT-6c"/>
      <use xlink:href="#ArialMT-6f" x="22.216797"/>
      <use xlink:href="#ArialMT-73" x="77.832031"/>
      <use xlink:href="#ArialMT-73" x="127.832031"/>
     </g>
    </g>
   </g>
   <g id="line2d_13">
    <path d="M 83.595973 43.290121 
L 83.833703 28.917273 
L 84.071433 54.295273 
L 84.309163 35.780073 
L 84.546893 47.120635 
L 84.784623 47.846288 
L 85.022354 65.513155 
L 85.260084 50.628588 
L 85.497814 56.391535 
L 85.735544 48.887646 
L 85.973274 53.779815 
L 86.448734 52.03343 
L 86.686464 61.095192 
L 86.924194 58.315169 
L 87.161924 67.641919 
L 87.637384 73.792188 
L 87.875114 75.137815 
L 88.112844 71.261705 
L 88.350575 82.084224 
L 88.588305 68.903022 
L 88.826035 82.231928 
L 89.063765 71.396591 
L 89.301495 84.027063 
L 89.539225 88.053813 
L 89.776955 84.365192 
L 90.014685 86.562471 
L 90.252415 82.817409 
L 90.490145 57.575685 
L 90.727875 88.387145 
L 91.203335 94.645415 
L 91.441065 103.801334 
L 91.678795 83.738772 
L 91.916526 96.626781 
L 92.154256 71.8577 
L 92.629716 99.113112 
L 92.867446 98.295162 
L 93.105176 101.223944 
L 93.342906 99.351835 
L 93.580636 77.861214 
L 93.818366 103.591264 
L 94.056096 97.093659 
L 94.293826 97.501746 
L 94.531556 106.763644 
L 94.769286 108.22527 
L 95.007016 92.43461 
L 95.244746 103.220429 
L 95.720207 84.964698 
L 95.957937 88.85402 
L 96.195667 89.368746 
L 96.433397 72.963188 
L 96.671127 102.846939 
L 96.908857 82.843205 
L 97.146587 109.289768 
L 97.384317 93.572691 
L 97.622047 110.133768 
L 97.859777 108.614782 
L 98.097507 112.878395 
L 98.335237 55.522908 
L 98.572967 110.892186 
L 98.810697 93.500849 
L 99.048428 111.266862 
L 99.286158 119.475902 
L 99.523888 118.818578 
L 99.761618 68.213729 
L 100.237078 111.669622 
L 100.474808 92.929536 
L 100.712538 100.452742 
L 100.950268 116.319589 
L 101.187998 94.510657 
L 101.425728 113.356173 
L 101.663458 116.850153 
L 101.901188 95.143045 
L 102.138918 98.771772 
L 102.376649 118.339429 
L 102.614379 111.221437 
L 103.089839 79.927077 
L 103.327569 103.000099 
L 103.565299 100.337029 
L 103.803029 114.317928 
L 104.040759 119.192091 
L 104.278489 101.261628 
L 104.516219 94.980679 
L 104.991679 106.449274 
L 105.229409 86.466366 
L 105.467139 118.678743 
L 105.704869 102.500533 
L 105.9426 107.76401 
L 106.18033 109.63374 
L 106.41806 114.481926 
L 106.65579 90.357409 
L 106.89352 120.312376 
L 107.13125 116.458795 
L 107.36898 125.97567 
L 107.60671 107.661582 
L 107.84444 120.953281 
L 108.08217 163.989258 
L 108.3199 121.233256 
L 108.55763 122.191475 
L 108.79536 119.491736 
L 109.03309 111.868472 
L 109.27082 122.0539 
L 109.508551 120.647668 
L 109.746281 120.400391 
L 109.984011 105.947612 
L 110.221741 126.558506 
L 110.697201 105.102269 
L 110.934931 101.399524 
L 111.172661 86.854359 
L 111.410391 79.739164 
L 111.648121 127.614666 
L 111.885851 104.266137 
L 112.123581 63.707874 
L 112.361311 103.88155 
L 112.599041 122.979705 
L 113.074502 94.409988 
L 113.312232 104.861228 
L 113.549962 109.93385 
L 113.787692 105.361139 
L 114.025422 80.272606 
L 114.738612 124.754234 
L 114.976342 126.884909 
L 115.451802 108.814835 
L 115.927262 127.649911 
L 116.164992 118.855363 
L 116.402723 78.684385 
L 116.640453 131.672644 
L 116.878183 99.115043 
L 117.115913 105.808376 
L 117.353643 109.370647 
L 117.591373 94.562601 
L 117.829103 129.916048 
L 118.066833 119.325585 
L 118.304563 96.505595 
L 118.542293 122.432252 
L 118.780023 123.793716 
L 119.017753 133.259671 
L 119.255483 123.481946 
L 119.493213 134.365564 
L 119.730943 115.554914 
L 119.968674 129.733756 
L 120.206404 116.244001 
L 120.444134 93.511803 
L 120.919594 133.98058 
L 121.157324 113.75896 
L 121.395054 117.369334 
L 121.632784 116.040693 
L 121.870514 113.079239 
L 122.108244 114.721117 
L 122.345974 133.076733 
L 122.583704 108.171345 
L 122.821434 124.180692 
L 123.059164 95.890187 
L 123.296894 115.023463 
L 123.534625 108.142543 
L 123.772355 120.80661 
L 124.010085 115.090543 
L 124.247815 97.119117 
L 124.485545 157.64073 
L 124.723275 146.506443 
L 124.961005 120.03275 
L 125.436465 136.37087 
L 125.911925 99.8952 
L 126.149655 99.312315 
L 126.387385 113.5678 
L 126.862846 128.852873 
L 127.100576 138.107006 
L 127.338306 120.819919 
L 127.576036 132.270635 
L 127.813766 117.294966 
L 128.051496 137.706842 
L 128.289226 144.751034 
L 128.526956 119.81907 
L 128.764686 150.784453 
L 129.002416 126.943301 
L 129.240146 114.26861 
L 129.477876 131.854872 
L 129.715606 106.377595 
L 129.953336 142.741183 
L 130.191066 101.952179 
L 130.428797 143.895617 
L 130.666527 140.831325 
L 130.904257 123.515125 
L 131.141987 139.888616 
L 131.379717 123.553283 
L 131.617447 123.654018 
L 131.855177 143.468274 
L 132.330637 110.098603 
L 132.568367 114.314736 
L 132.806097 121.041661 
L 133.043827 89.015073 
L 133.281557 150.296145 
L 133.519287 114.072359 
L 133.757017 152.717569 
L 133.994748 142.924235 
L 134.232478 127.614435 
L 134.470208 138.130591 
L 134.707938 128.312966 
L 134.945668 151.225093 
L 135.183398 147.70364 
L 135.421128 149.543585 
L 135.658858 121.446025 
L 135.896588 113.498212 
L 136.134318 66.883533 
L 136.372048 131.84081 
L 136.609778 125.349117 
L 136.847508 145.260495 
L 137.085238 116.396933 
L 137.322969 147.880795 
L 137.560699 144.967127 
L 137.798429 150.153229 
L 138.273889 123.987649 
L 138.511619 134.053821 
L 138.987079 124.784276 
L 139.224809 74.081131 
L 139.462539 126.44687 
L 139.700269 114.534505 
L 139.937999 126.500036 
L 140.175729 112.393907 
L 140.413459 153.968749 
L 140.651189 127.879201 
L 140.88892 125.821144 
L 141.12665 151.221582 
L 141.36438 153.752273 
L 141.60211 133.834195 
L 141.83984 143.763428 
L 142.07757 118.008484 
L 142.3153 131.626227 
L 142.55303 134.727472 
L 142.79076 155.681011 
L 143.02849 156.618253 
L 143.26622 143.14701 
L 143.50395 166.14218 
L 143.74168 134.797425 
L 143.97941 159.687734 
L 144.21714 136.851749 
L 144.454871 135.224665 
L 144.692601 157.138057 
L 144.930331 103.402471 
L 145.168061 155.388189 
L 145.405791 156.227813 
L 145.643521 80.054685 
L 145.881251 131.691214 
L 146.118981 157.459566 
L 146.356711 113.387025 
L 146.594441 163.887935 
L 146.832171 157.538426 
L 147.069901 119.406659 
L 147.545361 143.237078 
L 147.783091 121.29421 
L 148.258552 158.728237 
L 148.496282 165.780616 
L 148.734012 164.023343 
L 148.971742 128.844456 
L 149.209472 156.769556 
L 149.447202 162.237105 
L 149.684932 137.855729 
L 149.922662 131.720024 
L 150.160392 138.882782 
L 150.398122 157.416209 
L 150.635852 161.830413 
L 151.111312 115.356794 
L 151.349043 107.767681 
L 151.586773 145.89696 
L 151.824503 160.288286 
L 152.062233 115.753717 
L 152.299963 163.340173 
L 152.537693 165.606833 
L 152.775423 136.592686 
L 153.013153 177.221897 
L 153.250883 165.326227 
L 153.488613 164.564995 
L 153.726343 138.679559 
L 153.964073 142.205323 
L 154.201803 167.106325 
L 154.439533 159.028915 
L 154.677263 142.825642 
L 154.914994 161.48982 
L 155.152724 143.772702 
L 155.390454 99.806215 
L 155.865914 165.338081 
L 156.103644 124.678473 
L 156.341374 142.288209 
L 156.579104 63.908445 
L 156.816834 140.565456 
L 157.054564 120.425162 
L 157.530024 168.502226 
L 157.767754 122.427993 
L 158.243214 156.022631 
L 158.480945 142.80926 
L 158.718675 171.604008 
L 158.956405 122.683503 
L 159.194135 156.913986 
L 159.431865 158.979995 
L 159.669595 137.960109 
L 159.907325 140.672454 
L 160.145055 158.834747 
L 160.382785 167.704697 
L 160.620515 146.901844 
L 160.858245 159.328755 
L 161.095975 126.541012 
L 161.333705 162.884752 
L 161.571435 125.527645 
L 161.809166 106.135344 
L 162.046896 141.369761 
L 162.284626 155.71803 
L 162.522356 149.12933 
L 162.760086 149.459359 
L 162.997816 163.453433 
L 163.235546 147.499765 
L 163.473276 169.351669 
L 163.711006 151.068894 
L 163.948736 101.87885 
L 164.424196 156.009803 
L 164.899656 115.110842 
L 165.375117 175.751077 
L 165.612847 133.563774 
L 165.850577 182.533244 
L 166.088307 133.03974 
L 166.326037 181.288296 
L 166.563767 150.558142 
L 166.801497 150.277604 
L 167.039227 179.588356 
L 167.276957 132.682021 
L 167.514687 180.803536 
L 167.990147 117.269171 
L 168.465607 177.379818 
L 168.703337 168.208744 
L 168.941068 153.842735 
L 169.178798 115.219438 
L 169.416528 177.643805 
L 169.654258 141.519702 
L 169.891988 156.268039 
L 170.129718 155.601421 
L 170.367448 162.25744 
L 170.605178 178.313017 
L 170.842908 174.192112 
L 171.080638 173.508646 
L 171.318368 119.771479 
L 171.556098 186.298664 
L 171.793828 183.05008 
L 172.031558 139.317803 
L 172.269288 184.48784 
L 172.507019 121.628538 
L 172.982479 179.038594 
L 173.220209 181.657893 
L 173.457939 129.775605 
L 173.695669 179.459987 
L 173.933399 148.360945 
L 174.171129 152.821901 
L 174.408859 132.476792 
L 174.646589 153.259944 
L 174.884319 159.115992 
L 175.359779 181.181498 
L 175.597509 142.99419 
L 175.83524 191.198698 
L 176.07297 159.270051 
L 176.3107 153.57206 
L 176.54843 182.312702 
L 176.78616 183.570654 
L 177.02389 186.662442 
L 177.49935 133.739098 
L 177.97481 185.26237 
L 178.21254 179.229197 
L 178.45027 187.396005 
L 178.688 165.201806 
L 178.92573 154.159903 
L 179.16346 175.294156 
L 179.401191 158.278892 
L 179.638921 153.668459 
L 179.876651 182.170144 
L 180.352111 163.011694 
L 180.589841 157.05547 
L 180.827571 183.712176 
L 181.065301 105.313419 
L 181.303031 135.928689 
L 181.540761 134.571155 
L 181.778491 155.847271 
L 182.016221 190.809044 
L 182.253951 153.644008 
L 182.491681 186.663126 
L 182.729411 156.096581 
L 182.967142 164.691262 
L 183.204872 191.454799 
L 183.680332 145.399966 
L 183.918062 140.333046 
L 184.155792 149.432095 
L 184.393522 129.287057 
L 184.868982 191.215171 
L 185.106712 129.733286 
L 185.344442 158.352228 
L 185.582172 155.851731 
L 185.819902 104.281274 
L 186.057632 190.876189 
L 186.295363 115.624373 
L 186.533093 178.464962 
L 186.770823 187.271562 
L 187.008553 190.582631 
L 187.246283 187.561961 
L 187.484013 117.356754 
L 187.721743 188.66284 
L 187.959473 186.986826 
L 188.197203 160.636 
L 188.434933 191.228145 
L 188.910393 128.628187 
L 189.148123 137.751168 
L 189.385853 165.605352 
L 189.623583 156.99482 
L 189.861314 191.761982 
L 190.099044 111.749256 
L 190.336774 160.338772 
L 190.574504 157.855415 
L 190.812234 86.286728 
L 191.287694 192.58744 
L 191.525424 134.797915 
L 191.763154 131.92115 
L 192.000884 147.179441 
L 192.238614 189.70912 
L 192.476344 187.770267 
L 192.951804 153.853734 
L 193.189534 146.045377 
L 193.427265 154.134548 
L 193.664995 139.357339 
L 193.902725 175.399165 
L 194.140455 187.123667 
L 194.378185 156.323087 
L 194.615915 141.603495 
L 194.853645 157.160259 
L 195.091375 137.719719 
L 195.329105 172.260142 
L 195.566835 190.497119 
L 195.804565 131.965269 
L 196.042295 189.977366 
L 196.280025 127.383448 
L 196.517755 134.648318 
L 196.755485 163.202734 
L 196.993216 162.755589 
L 197.230946 187.221339 
L 197.468676 146.624747 
L 197.706406 196.480158 
L 197.944136 198.845788 
L 198.181866 152.085718 
L 198.419596 152.954739 
L 198.657326 191.577387 
L 198.895056 192.02713 
L 199.132786 183.878566 
L 199.370516 185.871049 
L 199.608246 167.793208 
L 199.845976 191.725751 
L 200.083706 178.194083 
L 200.559167 194.77819 
L 200.796897 147.158904 
L 201.034627 173.030585 
L 201.510087 158.645644 
L 201.747817 137.349215 
L 201.985547 195.805857 
L 202.223277 167.19029 
L 202.461007 182.559758 
L 202.698737 162.540652 
L 202.936467 195.468908 
L 203.174197 191.468494 
L 203.411927 149.886831 
L 203.649657 174.236381 
L 203.887388 151.148869 
L 204.125118 190.573557 
L 204.362848 188.589408 
L 204.600578 197.360839 
L 204.838308 151.174 
L 205.076038 195.26867 
L 205.313768 142.739397 
L 205.551498 118.822738 
L 205.789228 159.809203 
L 206.026958 163.638282 
L 206.264688 163.432356 
L 206.502418 161.631233 
L 206.740148 180.779617 
L 206.977878 190.828276 
L 207.215608 173.0256 
L 207.453339 191.567197 
L 207.691069 186.710102 
L 207.928799 138.881285 
L 208.166529 175.336532 
L 208.404259 193.817203 
L 208.641989 194.185225 
L 208.879719 194.823759 
L 209.117449 191.13246 
L 209.355179 173.144661 
L 209.592909 123.437265 
L 209.830639 194.044123 
L 210.068369 196.757171 
L 210.306099 166.415028 
L 210.543829 192.527318 
L 210.78156 155.581397 
L 211.01929 184.924083 
L 211.25702 134.519 
L 211.49475 191.297226 
L 211.73248 168.798395 
L 211.97021 110.070478 
L 212.20794 187.163273 
L 212.44567 177.520898 
L 212.6834 192.280025 
L 212.92113 155.239911 
L 213.15886 207.46178 
L 213.39659 197.146847 
L 213.63432 194.700354 
L 213.87205 154.80423 
L 214.10978 184.999155 
L 214.347511 168.091328 
L 214.585241 195.633679 
L 214.822971 187.733241 
L 215.060701 194.651598 
L 215.298431 196.664168 
L 215.536161 139.492307 
L 215.773891 144.524636 
L 216.011621 197.203323 
L 216.249351 89.483691 
L 216.724811 196.001363 
L 216.962541 196.455127 
L 217.200271 186.723381 
L 217.438001 126.097525 
L 217.675731 164.68595 
L 217.913462 139.03156 
L 218.151192 155.747264 
L 218.388922 196.552352 
L 218.626652 105.676702 
L 218.864382 188.023142 
L 219.102112 163.599599 
L 219.339842 166.259608 
L 219.577572 197.299927 
L 219.815302 164.238598 
L 220.290762 174.945802 
L 220.528492 164.839489 
L 220.766222 200.180853 
L 221.241682 184.63155 
L 221.479413 198.542584 
L 221.717143 144.028185 
L 221.954873 194.98102 
L 222.192603 198.183113 
L 222.430333 109.137188 
L 222.668063 196.728827 
L 223.143523 134.171864 
L 223.618983 195.945323 
L 223.856713 197.825572 
L 224.094443 171.580243 
L 224.332173 176.874272 
L 224.569903 104.674051 
L 224.807634 163.701905 
L 225.045364 137.739284 
L 225.283094 152.81917 
L 225.520824 200.108791 
L 225.996284 169.833071 
L 226.234014 193.308907 
L 226.471744 191.087617 
L 226.709474 172.423916 
L 226.947204 197.450973 
L 227.184934 168.945172 
L 227.422664 165.736634 
L 227.660394 197.956987 
L 227.898124 195.520443 
L 228.135854 141.781634 
L 228.373585 165.802914 
L 228.611315 166.647408 
L 228.849045 196.877499 
L 229.086775 191.105483 
L 229.324505 173.479272 
L 229.562235 194.109838 
L 229.799965 202.135127 
L 230.037695 149.140531 
L 230.275425 148.643318 
L 230.513155 161.970115 
L 230.750885 162.373687 
L 230.988615 198.036846 
L 231.226345 165.015955 
L 231.464075 195.423509 
L 231.701805 102.305016 
L 231.939536 171.295933 
L 232.177266 158.447425 
L 232.414996 200.821201 
L 232.652726 164.268911 
L 232.890456 163.307412 
L 233.128186 166.007576 
L 233.365916 176.315634 
L 233.603646 162.305673 
L 233.841376 161.112771 
L 234.079106 203.518385 
L 234.316836 204.914521 
L 234.554566 173.745731 
L 234.792296 174.127143 
L 235.030026 205.824708 
L 235.267757 193.221512 
L 235.505487 196.506639 
L 235.743217 193.627641 
L 235.980947 205.286939 
L 236.218677 198.783188 
L 236.456407 89.302644 
L 236.694137 198.888152 
L 236.931867 166.789157 
L 237.169597 202.465834 
L 237.407327 169.294487 
L 237.645057 168.113057 
L 237.882787 168.282443 
L 238.120517 197.239409 
L 238.358247 202.149803 
L 238.595977 135.61425 
L 238.833708 152.394641 
L 239.071438 125.249541 
L 239.546898 184.750176 
L 239.784628 198.108312 
L 240.022358 193.352622 
L 240.260088 168.586963 
L 240.497818 167.740212 
L 240.735548 173.197673 
L 240.973278 159.222763 
L 241.211008 155.568317 
L 241.448738 204.88311 
L 241.686468 184.657758 
L 241.924198 138.485321 
L 242.161928 179.042154 
L 242.399659 195.592201 
L 242.875119 170.166672 
L 243.112849 156.054159 
L 243.350579 193.114648 
L 243.588309 138.211557 
L 243.826039 197.668313 
L 244.063769 169.683922 
L 244.301499 206.83256 
L 244.539229 164.242425 
L 244.776959 199.457693 
L 245.252419 175.123831 
L 245.490149 167.997517 
L 245.727879 168.923026 
L 245.96561 188.604575 
L 246.20334 92.400702 
L 246.44107 161.765245 
L 246.6788 193.591683 
L 246.91653 202.122335 
L 247.15426 172.183896 
L 247.39199 174.498811 
L 247.62972 194.96845 
L 247.86745 152.77956 
L 248.10518 198.743058 
L 248.34291 188.313924 
L 248.58064 172.959565 
L 248.81837 169.057173 
L 249.0561 145.962269 
L 249.293831 186.82864 
L 249.531561 201.270653 
L 249.769291 173.280041 
L 250.007021 204.725775 
L 250.244751 182.811862 
L 250.482481 178.524355 
L 250.720211 168.867218 
L 250.957941 201.976806 
L 251.195671 110.607622 
L 251.671131 207.839608 
L 251.908861 139.682057 
L 252.146591 122.335449 
L 252.384321 200.80255 
L 252.622051 203.074852 
L 252.859782 173.582109 
L 253.097512 111.403851 
L 253.335242 193.852861 
L 253.572972 204.043557 
L 253.810702 202.35087 
L 254.048432 166.79604 
L 254.286162 176.023407 
L 254.523892 202.856956 
L 254.999352 141.29446 
L 255.474812 189.590084 
L 255.712542 173.569602 
L 256.188002 200.733181 
L 256.425733 159.02237 
L 256.663463 205.036381 
L 256.901193 198.985821 
L 257.138923 154.639917 
L 257.614383 199.653066 
L 257.852113 170.560159 
L 258.089843 175.448527 
L 258.327573 176.217632 
L 258.565303 155.633144 
L 258.803033 173.99666 
L 259.040763 157.418741 
L 259.278493 201.825026 
L 259.516223 203.164967 
L 259.753954 195.350749 
L 259.991684 203.500166 
L 260.229414 114.580924 
L 260.704874 218.462727 
L 260.942604 192.838065 
L 261.180334 200.698136 
L 261.418064 173.826512 
L 261.655794 192.802639 
L 261.893524 189.842841 
L 262.131254 97.23052 
L 262.368984 204.875067 
L 262.606714 98.507874 
L 262.844444 197.597048 
L 263.319905 143.716811 
L 263.557635 206.514847 
L 264.033095 137.545481 
L 264.270825 172.225115 
L 264.508555 183.304987 
L 264.746285 175.585951 
L 264.984015 205.560585 
L 265.221745 147.60721 
L 265.459475 145.307838 
L 265.697205 124.512971 
L 265.934935 204.794661 
L 266.172665 171.916102 
L 266.410395 189.995452 
L 266.648125 149.307872 
L 266.885856 207.197576 
L 267.123586 196.216311 
L 267.361316 198.527882 
L 267.599046 164.17799 
L 267.836776 162.024634 
L 268.312236 212.204642 
L 268.549966 203.630044 
L 268.787696 153.611326 
L 269.025426 200.457882 
L 269.263156 175.999581 
L 269.500886 203.235436 
L 269.976346 150.152427 
L 270.214076 202.298503 
L 270.451807 180.389242 
L 270.689537 201.502433 
L 270.927267 205.444842 
L 271.164997 205.129194 
L 271.402727 195.054682 
L 271.640457 138.216281 
L 271.878187 205.93649 
L 272.115917 163.377624 
L 272.353647 202.150932 
L 272.591377 170.042862 
L 272.829107 168.795664 
L 273.066837 207.845072 
L 273.304567 161.716315 
L 273.542297 205.65794 
L 273.780028 200.7041 
L 274.017758 179.569177 
L 274.255488 145.507526 
L 274.493218 149.061863 
L 274.730948 200.850675 
L 274.968678 164.648472 
L 275.206408 207.476585 
L 275.444138 210.933333 
L 275.681868 191.2022 
L 275.919598 111.415533 
L 276.157328 202.457539 
L 276.395058 176.599485 
L 276.632788 169.935944 
L 276.870518 177.791233 
L 277.108248 205.077795 
L 277.345979 165.707517 
L 277.821439 206.326841 
L 278.059169 189.528353 
L 278.296899 205.349922 
L 278.534629 189.258457 
L 278.772359 208.339334 
L 279.010089 201.589018 
L 279.247819 179.583152 
L 279.485549 120.537372 
L 279.723279 174.826287 
L 279.961009 145.415071 
L 280.198739 204.51625 
L 280.436469 203.67412 
L 280.674199 116.742123 
L 280.91193 128.652929 
L 281.14966 134.775075 
L 281.38739 201.345508 
L 281.62512 182.977944 
L 281.86285 206.953234 
L 282.10058 177.094208 
L 282.33831 121.761266 
L 282.81377 176.182012 
L 283.0515 174.573377 
L 283.28923 183.680124 
L 283.52696 142.876344 
L 283.76469 207.808767 
L 284.240151 194.19523 
L 284.477881 154.521366 
L 284.715611 150.354212 
L 284.953341 194.932533 
L 285.428801 211.032134 
L 285.666531 206.478851 
L 285.904261 174.049341 
L 286.141991 163.71422 
L 286.379721 171.688923 
L 286.617451 172.629809 
L 286.855181 149.421407 
L 287.092911 154.343836 
L 287.330641 170.974943 
L 287.568371 149.869947 
L 288.043832 197.815697 
L 288.281562 170.881203 
L 288.519292 206.569429 
L 288.994752 170.698503 
L 289.232482 205.523663 
L 289.470212 129.20129 
L 289.707942 203.053651 
L 289.945672 210.952448 
L 290.183402 169.758631 
L 290.421132 166.126691 
L 290.658862 205.780397 
L 290.896592 175.075201 
L 291.134322 178.618345 
L 291.372053 99.833294 
L 291.609783 177.749785 
L 292.085243 165.627618 
L 292.322973 145.04555 
L 292.560703 207.914974 
L 292.798433 202.347857 
L 293.036163 116.088216 
L 293.273893 172.406538 
L 293.511623 164.348988 
L 293.749353 171.963439 
L 293.987083 202.188188 
L 294.224813 209.526278 
L 294.462543 207.343829 
L 294.700273 174.64168 
L 294.938004 208.306834 
L 295.175734 205.78001 
L 295.413464 176.399362 
L 295.651194 215.067538 
L 295.888924 116.369565 
L 296.126654 110.684424 
L 296.602114 209.883467 
L 296.839844 111.916811 
L 297.077574 198.516853 
L 297.315304 208.294299 
L 297.553034 147.591365 
L 297.790764 178.445595 
L 298.028494 175.708906 
L 298.266225 179.15656 
L 298.503955 113.689496 
L 298.741685 211.430781 
L 298.979415 136.91086 
L 299.217145 214.978386 
L 299.692605 191.021429 
L 299.930335 198.519425 
L 300.168065 196.93351 
L 300.405795 210.257749 
L 300.643525 181.944501 
L 300.881255 202.509196 
L 301.118985 206.545039 
L 301.594445 200.634037 
L 301.832176 217.626685 
L 302.069906 188.831549 
L 302.307636 183.65542 
L 302.545366 212.312301 
L 302.783096 184.576805 
L 303.258556 166.680291 
L 303.496286 182.186343 
L 303.734016 181.498166 
L 303.971746 129.20129 
L 304.209476 205.785401 
L 304.447206 168.236529 
L 304.684936 177.400972 
L 304.922666 148.754234 
L 305.160396 96.440314 
L 305.398127 167.868514 
L 305.635857 201.458594 
L 305.873587 147.69228 
L 306.111317 193.625504 
L 306.349047 183.684462 
L 306.586777 206.506719 
L 306.824507 208.715385 
L 307.062237 212.362537 
L 307.299967 179.531148 
L 307.537697 173.807719 
L 307.775427 102.794478 
L 308.013157 181.073793 
L 308.250887 215.972532 
L 308.726347 133.300808 
L 308.964078 197.334941 
L 309.201808 194.361513 
L 309.439538 176.534767 
L 309.677268 202.569558 
L 309.914998 141.778071 
L 310.152728 211.393625 
L 310.390458 165.379283 
L 310.628188 216.977232 
L 310.865918 195.627188 
L 311.103648 125.156422 
L 311.341378 211.934233 
L 311.579108 177.436554 
L 311.816838 176.443953 
L 312.054568 155.568317 
L 312.292299 207.293244 
L 312.530029 215.876284 
L 312.767759 202.724336 
L 313.005489 169.399134 
L 313.243219 163.555937 
L 313.480949 200.774205 
L 313.718679 177.827551 
L 313.956409 202.455271 
L 314.194139 200.583737 
L 314.431869 217.932226 
L 314.669599 168.317188 
L 314.907329 173.044296 
L 315.145059 167.320534 
L 315.382789 175.695274 
L 315.620519 209.817026 
L 315.85825 189.511705 
L 316.09598 209.794489 
L 316.33371 214.446624 
L 316.57144 136.373572 
L 316.80917 202.33919 
L 317.28463 148.840201 
L 317.52236 123.457348 
L 317.76009 171.832609 
L 318.47328 213.891909 
L 318.94874 124.505703 
L 319.18647 166.707202 
L 319.424201 144.221816 
L 319.661931 210.302957 
L 319.899661 181.779201 
L 320.137391 207.54709 
L 320.375121 176.681775 
L 320.850581 152.222004 
L 321.088311 156.587735 
L 321.088311 156.587735 
" clip-path="url(#pcd157d4af2)" style="fill: none; stroke: #1f77b4; stroke-width: 1.5; stroke-linecap: square"/>
   </g>
   <g id="patch_3">
    <path d="M 71.721356 227.94 
L 71.721356 19.44 
" style="fill: none; stroke: #000000; stroke-width: 0.8; stroke-linejoin: miter; stroke-linecap: square"/>
   </g>
   <g id="patch_4">
    <path d="M 332.962928 227.94 
L 332.962928 19.44 
" style="fill: none; stroke: #000000; stroke-width: 0.8; stroke-linejoin: miter; stroke-linecap: square"/>
   </g>
   <g id="patch_5">
    <path d="M 71.721356 227.94 
L 332.962928 227.94 
" style="fill: none; stroke: #000000; stroke-width: 0.8; stroke-linejoin: miter; stroke-linecap: square"/>
   </g>
   <g id="patch_6">
    <path d="M 71.721356 19.44 
L 332.962928 19.44 
" style="fill: none; stroke: #000000; stroke-width: 0.8; stroke-linejoin: miter; stroke-linecap: square"/>
   </g>
  </g>
 </g>
 <defs>
  <clipPath id="pcd157d4af2">
   <rect x="71.721356" y="19.44" width="261.241572" height="208.5"/>
  </clipPath>
 </defs>
</svg>
